<svg id="Layer_1" data-name="Layer 1" xmlns="http://www.w3.org/2000/svg" viewBox="0 0 2479.92 566.93"><defs><style>.cls-1{fill:#fff;}</style></defs><title>Artboard 15</title><rect class="cls-1" y="0.13" width="2479.92" height="566.93"/><path d="M507,321.41a2.5,2.5,0,0,0,.48-2.11L473.66,171.16a2.51,2.51,0,0,0-1.36-1.7l-13.95-6.72a13.44,13.44,0,0,1-6.4-8l-3.76-16.46a2.51,2.51,0,0,0-1.36-1.7L311.51,71.38a2.52,2.52,0,0,0-2.18,0L294.11,78.7a13.41,13.41,0,0,1-10.26,0l-15.21-7.32a2.52,2.52,0,0,0-2.18,0L131.13,136.55a2.51,2.51,0,0,0-1.36,1.71L126,154.71a13.37,13.37,0,0,1-6.4,8l-14,6.72a2.51,2.51,0,0,0-1.36,1.71L70.48,319.3a2.47,2.47,0,0,0,.49,2.11l9.66,12.12a13.48,13.48,0,0,1,2.29,10L79.85,357a2.5,2.5,0,0,0,.48,2.11l96.09,120.48a2.47,2.47,0,0,0,2,.94h13.77a13.44,13.44,0,0,1,9.25,4.46l8.11,10.16a2.47,2.47,0,0,0,1.95.94H366.51a2.5,2.5,0,0,0,2-.94l8.1-10.16a13.46,13.46,0,0,1,9.25-4.46h13.77a2.5,2.5,0,0,0,2-.94l96.08-120.48a2.5,2.5,0,0,0,.48-2.11l-3.06-13.43a13.43,13.43,0,0,1,2.28-10ZM306.49,130c.05-7.68,5.75-11.24,12.67-7.9l80.49,38.76c6.92,3.33,7.67,10,1.67,14.77l-25.61,20.42c-6,4.79-16.58,6-23.51,2.64l-33.4-16.08c-6.92-3.33-12.54-12.35-12.5-20Zm-132.9,33.13,85.57-41.21c6.92-3.33,12.58.23,12.58,7.91V162.6c0,7.68-5.66,16.7-12.58,20L221,201c-6.92,3.33-17.5,2.14-23.5-2.65l-25.6-20.42C165.92,173.13,166.67,166.48,173.59,163.15ZM119,297.16l19.55-85.65c1.71-7.49,8-9.7,14-4.91l28.19,22.49c6,4.79,9.52,14.83,7.81,22.32l-7.19,31.52c-1.71,7.49-9.24,15-16.73,16.72l-35.15,8C122,309.38,117.31,304.65,119,297.16Zm101.32,91.26-17.43,36.19c-3.34,6.92-10,7.67-14.77,1.66l-56.48-70.82c-4.79-6-2.58-12.31,4.91-14l39.17-8.94c7.49-1.71,17.54,1.81,22.32,7.81l19.63,24.61C222.48,370.92,223.67,381.5,220.34,388.42Zm107.41,65.25H241.14c-7.68,0-11.24-5.66-7.9-12.58l18.23-37.85c3.33-6.92,12.34-12.58,20-12.58h25.92c7.68,0,16.69,5.66,20,12.58l18.22,37.85C339,448,335.43,453.67,327.75,453.67Zm-7-115.89a12.46,12.46,0,0,1-8.56,4.12H265.74a12.42,12.42,0,0,1-8.55-4.12l-29-36.34a12.44,12.44,0,0,1-2.12-9.26l10.35-45.32a12.41,12.41,0,0,1,5.91-7.42l41.89-20.17a12.48,12.48,0,0,1,9.49,0l41.88,20.17a12.46,12.46,0,0,1,5.92,7.42l10.34,45.32a12.43,12.43,0,0,1-2.11,9.26Zm125.27,18-61.88,77.59c-4.79,6-11.43,5.26-14.77-1.66L352,395.5c-3.34-6.92-2.14-17.5,2.64-23.5l25-31.39c4.79-6,14.84-9.52,22.33-7.81l39.16,8.94C448.63,343.45,450.84,349.76,446.05,355.77Zm2.48-47.71-35.15-8c-7.49-1.71-15-9.24-16.73-16.73l-8.45-37C386.49,238.81,390,228.76,396,224l28.19-22.48c6-4.79,12.32-2.58,14,4.91L459,297.55C460.74,305,456,309.77,448.53,308.06Z"/><path d="M649.45,298.79l70.88-66.62H764l-82.37,75.15,90.9,94.51H727.22l-77.77-81.71v81.71H615V158h34.46Z"/><path d="M874.24,407.08q-37.1,0-55.79-12.47T799.74,352V232.17H834.2V345.06a93.09,93.09,0,0,0,1,14.44,19.48,19.48,0,0,0,4.92,10.5q3.93,4.26,12,6.4t22.15,2.13q14.1,0,22-2.13T908,370A19.62,19.62,0,0,0,913,359.5a93.19,93.19,0,0,0,1-14.44V232.17H948.4V352q0,30.19-18.71,42.66T874.24,407.08Z"/><path d="M1077.36,226.92q21.66,0,35.93,5.09t23,15.26q8.68,10.17,12.3,25.27t3.61,35.11V326q0,20.34-3.44,35.6t-12.64,25.43q-9.19,10.19-24.77,15.1t-39.55,4.92q-20.34,0-34.78-3.94a53.4,53.4,0,0,1-24-13.29q-9.52-9.35-13.94-24.94T994.67,326V158h34.45v82.37a51,51,0,0,1,18.71-10Q1059,226.92,1077.36,226.92Zm-3.28,28.22q-14.11,0-22.81,2t-13.62,7.22q-4.92,5.25-6.72,14.28a118.82,118.82,0,0,0-1.81,22.8V326q0,17.39,1.64,27.73t6.57,15.91a23.88,23.88,0,0,0,13.45,7.38q8.54,1.81,22.31,1.81a115.16,115.16,0,0,0,21.33-1.64q8.53-1.64,13.46-7.06t7-15.91q2.14-10.5,2.14-28.22V309.62q0-17.73-2-28.39t-6.73-16.57a22.22,22.22,0,0,0-13.12-7.71A103.23,103.23,0,0,0,1074.08,255.14Z"/><path d="M1225,329.64a135.16,135.16,0,0,0,1.48,22.31q1.47,8.54,5.91,13.46t12.3,6.72q7.88,1.81,21,1.81h24.12q14.6,0,37.9-.66l-5.9,28.55q-10.18.33-17.39.49t-13.29.17h-25.44q-23.29,0-37.9-5.42t-23-15.42a54.29,54.29,0,0,1-11.32-24.28,156.59,156.59,0,0,1-3-31.67V307.32a165,165,0,0,1,3.12-33.63q3.12-14.94,11.49-25.27t23.3-15.92q14.93-5.58,38.88-5.58,22,0,35.94,5.09t22,13.78a46.32,46.32,0,0,1,11,20,92.54,92.54,0,0,1,3,23.46v4.92a105.27,105.27,0,0,1-1.31,18.71q-1.32,6.89-4.27,10.66a13.5,13.5,0,0,1-7.38,4.93,42.85,42.85,0,0,1-10.67,1.15Zm40.69-75.48q-13.12,0-21,2a22.29,22.29,0,0,0-12.3,7.38q-4.44,5.42-5.91,14.93a165.65,165.65,0,0,0-1.48,24.62h81.71V291.9a78.23,78.23,0,0,0-1.8-18.21,22.28,22.28,0,0,0-6.57-11.65,27.86,27.86,0,0,0-12.63-6.08A92.23,92.23,0,0,0,1265.72,254.16Z"/><path d="M1362.44,336.05l3.9-31,57.23-2-3.9,31Z"/><path d="M1541,301.74q14.78,1.32,24,6.07a38.14,38.14,0,0,1,20.84,25.93,65.62,65.62,0,0,1,1.8,14.93v4.59q0,23.31-16.74,36.26t-51.52,13q-14.76,0-34.29-.17t-39.21-.49l5.9-28.55q17.73.33,36.1.49t33.14.17q19,0,26.09-4.27t7.06-16.73a32.24,32.24,0,0,0-.82-7.39,13.23,13.23,0,0,0-3.28-6.07,19.2,19.2,0,0,0-7.06-4.43,45.71,45.71,0,0,0-12.47-2.46L1491.15,329q-12.14-1-20.67-5.09a41.65,41.65,0,0,1-13.78-10.17A39,39,0,0,1,1449,300.1a49.44,49.44,0,0,1-2.46-15.42V279.1q0-22.32,15.43-35t50.53-12.63h32.82q17.06,0,38.39.65l-5.9,28.55q-13.79-.32-24.29-.49t-18.54-.16h-26.09q-16.72,0-23.3,4.1t-6.56,14.6a31.06,31.06,0,0,0,.82,7.55,11.13,11.13,0,0,0,3.28,5.58,20.3,20.3,0,0,0,7.22,3.94,53.43,53.43,0,0,0,12.64,2.29Z"/><path d="M1705.11,226.92q21,0,35.77,3.78T1765,244q9.35,9.51,13.62,25.43t4.26,40.2v14.77q0,21.64-3.44,37.24t-12.14,25.6q-8.7,10-23.79,14.93t-38.73,4.92q-15.42,0-26.09-3.77t-17.22-9.68v65.63h-34.79V308q0-23.3,4.43-38.89t14-24.94q9.51-9.35,24.28-13.29T1705.11,226.92Zm-.33,151.94q13.79,0,22.15-2a23,23,0,0,0,13.13-7.88q4.76-5.89,6.24-16.57a213.89,213.89,0,0,0,1.47-28.05V309.62q0-18-1.64-28.72t-6.4-16.4a22.59,22.59,0,0,0-13.12-7.55,131.52,131.52,0,0,0-43.49,0,23.94,23.94,0,0,0-13.45,7.38q-4.92,5.6-6.73,15.92t-1.8,27.73v23.3q0,14.45,2,23.62t6.89,14.61q4.92,5.42,13.45,7.38A97.11,97.11,0,0,0,1704.78,378.86Z"/><path d="M1966.32,373.61q0,15.75-7.22,22t-26.25,6.23h-49.23q-34.45,0-49.38-12.63t-14.93-37.91v-7.22q0-27.56,16.24-39.37t50.7-11.82q19.7,0,30.85,3.12t16.4,6.73v-9.85a78.3,78.3,0,0,0-1.14-14.27,18.15,18.15,0,0,0-5.58-10.18q-4.44-4.1-12.8-6.23t-22.81-2.13q-13.79,0-29.37.16t-26.74.49l6.23-28.55q9.18-.31,22.65-.49t27.23-.16q39.7,0,57.43,13.94t17.72,41.19ZM1851.46,351q0,11.49,6.9,17.22t25.26,5.75h49.88V343.75a39.84,39.84,0,0,0-1.31-10.83,13.34,13.34,0,0,0-5.25-7.39q-3.93-2.77-11.48-4.1a122.47,122.47,0,0,0-20-1.31h-7.55a114,114,0,0,0-17.88,1.15,27.75,27.75,0,0,0-11.16,3.94,14.67,14.67,0,0,0-5.74,7.38,34.34,34.34,0,0,0-1.65,11.48Z"/><path d="M2111.69,273.52l-34.12,128.31h-35.45l-50.2-169.66h34.45l33.8,133.56,35.77-133.56h33.47l34.13,134.22,35.77-134.22h32.16l-51.19,169.66h-35.44Z"/><path d="M2258.71,401.83V282.05q0-29.53,18.21-42.33t56.94-12.8q38.71,0,56.93,12.8T2409,282.05V401.83h-34.45V288.94a93,93,0,0,0-1-14.43,19.54,19.54,0,0,0-4.92-10.51c-2.62-2.84-6.68-5-12.14-6.39s-13-2.14-22.64-2.14-17.18.72-22.65,2.14-9.51,3.55-12.14,6.39a19.69,19.69,0,0,0-4.92,10.51,93,93,0,0,0-1,14.43V401.83Z"/></svg>