<svg id="Layer_1" data-name="Layer 1" xmlns="http://www.w3.org/2000/svg" viewBox="0 0 1133.86 1343.78"><defs><style>.cls-1{fill:#fff;}.cls-2{fill:#ff0017;}</style></defs><title>Artboard 30</title><rect class="cls-1" width="1133.86" height="1343.78"/><path class="cls-2" d="M1061.75,639.24a5.66,5.66,0,0,0,1.1-4.79L986.18,298.59a5.7,5.7,0,0,0-3.09-3.87l-31.63-15.23c-6.4-3.09-12.93-11.28-14.51-18.2L928.43,224a5.7,5.7,0,0,0-3.08-3.86L618.52,72.35a5.64,5.64,0,0,0-4.94,0L579.09,89c-6.4,3.08-16.87,3.08-23.27,0L521.33,72.35a5.66,5.66,0,0,0-5,0L209.57,220.11a5.68,5.68,0,0,0-3.09,3.87L198,261.29c-1.58,6.92-8.11,15.11-14.51,18.2L151.8,294.73a5.73,5.73,0,0,0-3.09,3.87L72.06,634.45a5.69,5.69,0,0,0,1.09,4.79l21.92,27.48c4.43,5.55,6.76,15.76,5.18,22.69l-7,30.44a5.65,5.65,0,0,0,1.09,4.79L312.25,997.81a5.64,5.64,0,0,0,4.42,2.13h31.22c7.1,0,16.54,4.55,21,10.1l18.38,23a5.64,5.64,0,0,0,4.43,2.13H743.24a5.67,5.67,0,0,0,4.43-2.13l18.38-23c4.43-5.55,13.86-10.1,21-10.1h31.22a5.67,5.67,0,0,0,4.43-2.13l217.85-273.17a5.68,5.68,0,0,0,1.09-4.79l-6.95-30.44c-1.58-6.93.75-17.14,5.18-22.69ZM607.16,205.31c.1-17.42,13-25.48,28.71-17.93l182.5,87.89c15.69,7.55,17.39,22.62,3.77,33.48l-58.06,46.3c-13.61,10.86-37.59,13.56-53.28,6l-75.73-36.47c-15.69-7.55-28.45-28-28.35-45.4ZM305.84,280.42l194-93.43c15.69-7.56,28.53.51,28.53,17.93v74.26c0,17.41-12.84,37.85-28.53,45.4l-86.45,41.63c-15.69,7.56-39.67,4.86-53.28-6l-58-46.3C288.45,303,290.15,288,305.84,280.42ZM182.09,584.25l44.33-194.2c3.88-17,18.19-22,31.8-11.12l63.92,51c13.61,10.86,21.58,33.64,17.7,50.62L323.53,552c-3.87,17-20.93,34-37.91,37.91l-79.7,18.18C188.94,612,178.22,601.23,182.09,584.25ZM411.82,791.16,372.3,873.21c-7.56,15.69-22.63,17.39-33.49,3.77l-128-160.56c-10.86-13.62-5.85-27.93,11.13-31.8l88.81-20.26c17-3.88,39.76,4.1,50.62,17.71l44.5,55.8C416.68,751.49,419.38,775.47,411.82,791.16Zm243.53,148H459c-17.42,0-25.48-12.84-17.93-28.53l41.34-85.81c7.56-15.69,28-28.53,45.41-28.53h58.76c17.41,0,37.84,12.84,45.4,28.53l41.31,85.81C680.84,926.27,672.77,939.11,655.35,939.11ZM639.54,676.35c-4.1,5.13-12.82,9.33-19.39,9.33H514.76c-6.57,0-15.3-4.2-19.39-9.33L429.66,594c-4.1-5.14-6.25-14.58-4.79-21l23.45-102.75c1.46-6.41,7.5-14,13.42-16.83l95-45.73c5.92-2.85,15.61-2.85,21.52,0l95,45.73c5.92,2.85,12,10.42,13.42,16.83L710,573c1.46,6.4-.69,15.84-4.79,21Zm284,40.79L783.27,893.06c-10.86,13.62-25.92,11.92-33.48-3.77l-39.51-82.08c-7.56-15.69-4.86-39.67,6-53.28L773,682.77c10.86-13.62,33.63-21.59,50.61-17.71l88.8,20.27C929.42,689.21,934.43,703.52,923.57,717.14ZM929.18,609l-79.69-18.19c-17-3.88-34-20.94-37.92-37.92l-19.16-83.93c-3.87-17,4.1-39.75,17.71-50.61l63.92-51c13.61-10.86,27.93-5.85,31.8,11.13L953,585.15C956.88,602.13,946.16,612.85,929.18,609Z"/><path d="M158.15,1165.92l33.59-31.57h20.68l-39,35.61,43.08,44.79H195L158.15,1176v38.72H141.82V1099.2h16.33Z"/><path d="M264.68,1217.24q-17.58,0-26.44-5.91t-8.86-20.22v-56.76H245.7v53.5a44.42,44.42,0,0,0,.47,6.84,9.26,9.26,0,0,0,2.33,5,11.66,11.66,0,0,0,5.68,3,43,43,0,0,0,10.5,1,42,42,0,0,0,10.42-1,11.6,11.6,0,0,0,5.6-3,9.26,9.26,0,0,0,2.33-5,44.42,44.42,0,0,0,.47-6.84v-53.5h16.33v56.76q0,14.31-8.87,20.22T264.68,1217.24Z"/><path d="M360.94,1131.86q10.28,0,17,2.41a25.1,25.1,0,0,1,10.89,7.23,28.15,28.15,0,0,1,5.83,12,72.14,72.14,0,0,1,1.71,16.65v8.7a77.22,77.22,0,0,1-1.63,16.88,26.23,26.23,0,0,1-6,12,25.94,25.94,0,0,1-11.74,7.16q-7.38,2.33-18.74,2.33a63,63,0,0,1-16.48-1.87,25.28,25.28,0,0,1-11.36-6.3,26.15,26.15,0,0,1-6.61-11.82,68.48,68.48,0,0,1-2.1-18.43V1099.2h16.33v39a24.28,24.28,0,0,1,8.87-4.74A48.73,48.73,0,0,1,360.94,1131.86Zm-1.55,13.37a50.08,50.08,0,0,0-10.81.94,12.23,12.23,0,0,0-6.45,3.42,13.48,13.48,0,0,0-3.19,6.76,56.6,56.6,0,0,0-.86,10.81v11.66a87.57,87.57,0,0,0,.78,13.15,14.72,14.72,0,0,0,3.11,7.54,11.37,11.37,0,0,0,6.38,3.5,52.9,52.9,0,0,0,10.57.85,54.78,54.78,0,0,0,10.11-.77,11.2,11.2,0,0,0,6.38-3.35,15.68,15.68,0,0,0,3.34-7.54,69.71,69.71,0,0,0,1-13.38v-7.77a77.44,77.44,0,0,0-.93-13.45,17.5,17.5,0,0,0-3.19-7.86,10.57,10.57,0,0,0-6.22-3.65A48.77,48.77,0,0,0,359.39,1145.23Z"/><path d="M430.93,1180.54a63.9,63.9,0,0,0,.7,10.57,12.54,12.54,0,0,0,2.8,6.38,10.87,10.87,0,0,0,5.83,3.19,46.39,46.39,0,0,0,9.95.85h11.44q6.92,0,18-.31l-2.8,13.53c-3.22.1-6,.18-8.24.23s-4.39.08-6.3.08H450.21q-11,0-18-2.56a25.44,25.44,0,0,1-10.89-7.31,25.77,25.77,0,0,1-5.36-11.51,74.46,74.46,0,0,1-1.4-15V1170a78,78,0,0,1,1.48-15.94,27.7,27.7,0,0,1,5.44-12,25.18,25.18,0,0,1,11-7.54q7.08-2.64,18.43-2.64,10.42,0,17,2.41a26,26,0,0,1,10.42,6.53,21.92,21.92,0,0,1,5.21,9.49,44,44,0,0,1,1.4,11.12v2.33a50,50,0,0,1-.62,8.86,11.81,11.81,0,0,1-2,5.06,6.41,6.41,0,0,1-3.5,2.33,20.07,20.07,0,0,1-5.06.55Zm19.28-35.77a42.72,42.72,0,0,0-9.95.93,10.57,10.57,0,0,0-5.83,3.5,14.54,14.54,0,0,0-2.8,7.07,78.43,78.43,0,0,0-.7,11.67h38.72v-5.29a37,37,0,0,0-.85-8.63,10.58,10.58,0,0,0-3.11-5.52,13.22,13.22,0,0,0-6-2.88A43.65,43.65,0,0,0,450.21,1144.77Z"/><path d="M496.05,1183.58l1.85-14.69L525,1168l-1.84,14.68Z"/><path d="M580.69,1167.32a30.67,30.67,0,0,1,11.35,2.87,18.81,18.81,0,0,1,6.69,5.45,18.58,18.58,0,0,1,3.19,6.84,31.08,31.08,0,0,1,.85,7.08v2.17q0,11.05-7.93,17.19t-24.41,6.14q-7,0-16.26-.08t-18.58-.23l2.8-13.53q8.4.15,17.11.23t15.7.08q9,0,12.37-2t3.34-7.93a15,15,0,0,0-.39-3.5,6.34,6.34,0,0,0-1.55-2.88,9.09,9.09,0,0,0-3.35-2.1,21.27,21.27,0,0,0-5.91-1.16l-18.66-1.72a27.64,27.64,0,0,1-9.8-2.41,19.81,19.81,0,0,1-6.53-4.82,18.39,18.39,0,0,1-3.65-6.45,23.39,23.39,0,0,1-1.17-7.31v-2.64q0-10.58,7.31-16.57t23.95-6h15.55q8.09,0,18.2.32l-2.8,13.53c-4.36-.11-8.19-.18-11.51-.24s-6.25-.08-8.79-.08H565.45q-7.94,0-11,2c-2.08,1.3-3.11,3.6-3.11,6.92a14.81,14.81,0,0,0,.39,3.58,5.2,5.2,0,0,0,1.55,2.64,9.56,9.56,0,0,0,3.42,1.87,25.39,25.39,0,0,0,6,1.09Z"/><path d="M658.45,1131.86a68.92,68.92,0,0,1,16.95,1.79,23.92,23.92,0,0,1,11.43,6.29,26.66,26.66,0,0,1,6.46,12.06,75.53,75.53,0,0,1,2,19v7a82.74,82.74,0,0,1-1.63,17.65,27,27,0,0,1-5.76,12.13,24.71,24.71,0,0,1-11.27,7.08q-7.15,2.33-18.35,2.33a37.38,37.38,0,0,1-12.37-1.79,23.89,23.89,0,0,1-8.16-4.59V1242H621.28v-71.7a68.58,68.58,0,0,1,2.1-18.43A26.26,26.26,0,0,1,630,1140a25.48,25.48,0,0,1,11.51-6.3A66.86,66.86,0,0,1,658.45,1131.86Zm-.15,72a47.58,47.58,0,0,0,10.49-.93,10.89,10.89,0,0,0,6.22-3.73,15.81,15.81,0,0,0,3-7.86,100.23,100.23,0,0,0,.7-13.29v-7a93.55,93.55,0,0,0-.78-13.61,15.88,15.88,0,0,0-3-7.78,10.73,10.73,0,0,0-6.22-3.57,62.17,62.17,0,0,0-20.61,0,11.25,11.25,0,0,0-6.37,3.5,15.05,15.05,0,0,0-3.19,7.54,79.87,79.87,0,0,0-.86,13.14v11a55.18,55.18,0,0,0,.93,11.2,14.76,14.76,0,0,0,3.27,6.92,12,12,0,0,0,6.38,3.5A46,46,0,0,0,658.3,1203.86Z"/><path d="M782.24,1201.38q0,7.45-3.42,10.42t-12.44,3H743.05q-16.32,0-23.4-6t-7.08-18v-3.42q0-13.07,7.7-18.66t24-5.6q9.33,0,14.62,1.47a27.38,27.38,0,0,1,7.77,3.19v-4.66a37.2,37.2,0,0,0-.54-6.77,8.62,8.62,0,0,0-2.65-4.82,13.85,13.85,0,0,0-6.06-3,45.26,45.26,0,0,0-10.81-1c-4.35,0-9,0-13.92.08s-9.15.13-12.67.24l3-13.53c2.9-.11,6.48-.18,10.73-.24s8.56-.08,12.91-.08q18.81,0,27.22,6.61t8.39,19.52Zm-54.43-10.74q0,5.46,3.27,8.17t12,2.72h23.64v-14.31a19,19,0,0,0-.62-5.13,6.25,6.25,0,0,0-2.49-3.5,13.44,13.44,0,0,0-5.44-1.94,57.23,57.23,0,0,0-9.49-.62h-3.57a54.75,54.75,0,0,0-8.48.54,13.15,13.15,0,0,0-5.29,1.87,6.92,6.92,0,0,0-2.72,3.5,16.27,16.27,0,0,0-.78,5.44Z"/><path d="M851.14,1153.94,835,1214.75h-16.8l-23.79-80.4h16.33l16,63.29,17-63.29h15.86l16.17,63.6,17-63.6h15.24l-24.26,80.4h-16.8Z"/><path d="M920.81,1214.75V1158q0-14,8.64-20.06t27-6.06q18.35,0,27,6.06T992,1158v56.77H975.71v-53.5a44.52,44.52,0,0,0-.46-6.84,9.32,9.32,0,0,0-2.33-5,11.72,11.72,0,0,0-5.76-3,57.5,57.5,0,0,0-21.46,0,11.72,11.72,0,0,0-5.76,3,9.32,9.32,0,0,0-2.33,5,44.42,44.42,0,0,0-.47,6.84v53.5Z"/></svg>